<?xml version="1.0" encoding="UTF-8" standalone="no"?>
<!DOCTYPE svg PUBLIC "-//W3C//DTD SVG 1.1//EN" "http://www.w3.org/Graphics/SVG/1.1/DTD/svg11.dtd">
<svg width="100%" height="100%" viewBox="0 0 340 90" version="1.1" xmlns="http://www.w3.org/2000/svg" xmlns:xlink="http://www.w3.org/1999/xlink" xml:space="preserve" xmlns:serif="http://www.serif.com/" style="fill-rule:evenodd;clip-rule:evenodd;stroke-linejoin:round;stroke-miterlimit:2;">
    <g transform="matrix(1,0,0,1,-86.1655,-211.403)">
        <g transform="matrix(1.36862,0,0,1.36862,-98.2094,-83.3153)">
            <g transform="matrix(45.8333,0,0,45.8333,186.505,248.294)">
                <path d="M0.07,-0L0.198,-0L0.198,-0.309C0.198,-0.396 0.242,-0.442 0.312,-0.442C0.374,-0.442 0.403,-0.399 0.403,-0.312L0.403,-0L0.531,-0L0.531,-0.343C0.531,-0.462 0.468,-0.546 0.35,-0.546C0.284,-0.546 0.227,-0.519 0.198,-0.463L0.198,-0.71L0.07,-0.71L0.07,-0Z" style="fill:white;fill-rule:nonzero;"/>
            </g>
            <g transform="matrix(45.8333,0,0,45.8333,213.317,248.294)">
                <path d="M0.07,-0L0.198,-0L0.198,-0.308C0.198,-0.39 0.238,-0.424 0.32,-0.424L0.37,-0.424L0.37,-0.534L0.321,-0.534C0.255,-0.534 0.214,-0.502 0.193,-0.43L0.19,-0.534L0.07,-0.534L0.07,-0Z" style="fill:white;fill-rule:nonzero;"/>
            </g>
            <g transform="matrix(45.8333,0,0,45.8333,230.23,248.294)">
                <path d="M0.301,0.012C0.424,0.012 0.515,-0.052 0.544,-0.156L0.413,-0.164C0.397,-0.117 0.359,-0.09 0.302,-0.09C0.225,-0.09 0.176,-0.137 0.172,-0.231L0.551,-0.231L0.551,-0.26C0.551,-0.44 0.451,-0.546 0.298,-0.546C0.141,-0.546 0.039,-0.435 0.039,-0.267C0.039,-0.098 0.141,0.012 0.301,0.012ZM0.172,-0.317C0.182,-0.4 0.229,-0.445 0.298,-0.445C0.366,-0.445 0.413,-0.404 0.419,-0.317L0.172,-0.317Z" style="fill:white;fill-rule:nonzero;"/>
            </g>
            <g transform="matrix(45.8333,0,0,45.8333,256.859,248.294)">
                <path d="M0.07,-0L0.198,-0L0.198,-0.302C0.198,-0.392 0.241,-0.442 0.31,-0.442C0.379,-0.442 0.403,-0.392 0.403,-0.302L0.403,-0L0.531,-0L0.531,-0.343C0.531,-0.463 0.467,-0.546 0.349,-0.546C0.278,-0.546 0.218,-0.516 0.189,-0.443L0.186,-0.534L0.07,-0.534L0.07,-0Z" style="fill:white;fill-rule:nonzero;"/>
            </g>
            <g transform="matrix(45.8333,0,0,45.8333,283.121,248.294)">
                <path d="M0.127,-0L0.255,-0L0.255,-0.435L0.388,-0.435L0.388,-0.534L0.255,-0.534L0.255,-0.548C0.255,-0.589 0.273,-0.611 0.315,-0.611L0.395,-0.611L0.395,-0.71L0.291,-0.71C0.178,-0.71 0.127,-0.651 0.127,-0.555L0.127,-0.534L0.051,-0.534L0.051,-0.435L0.127,-0.435L0.127,-0Z" style="fill:white;fill-rule:nonzero;"/>
            </g>
            <g transform="matrix(45.8333,0,0,45.8333,301.592,248.294)">
                <path d="M0.07,-0L0.198,-0L0.198,-0.308C0.198,-0.39 0.238,-0.424 0.32,-0.424L0.37,-0.424L0.37,-0.534L0.321,-0.534C0.255,-0.534 0.214,-0.502 0.193,-0.43L0.19,-0.534L0.07,-0.534L0.07,-0Z" style="fill:white;fill-rule:nonzero;"/>
            </g>
            <g transform="matrix(45.8333,0,0,45.8333,319.146,248.294)">
                <path d="M0.068,-0.605L0.201,-0.605L0.201,-0.719L0.068,-0.719L0.068,-0.605ZM0.07,-0L0.198,-0L0.198,-0.534L0.07,-0.534L0.07,-0Z" style="fill:white;fill-rule:nonzero;"/>
            </g>
            <g transform="matrix(45.8333,0,0,45.8333,331.017,248.294)">
                <path d="M0.301,0.012C0.424,0.012 0.515,-0.052 0.544,-0.156L0.413,-0.164C0.397,-0.117 0.359,-0.09 0.302,-0.09C0.225,-0.09 0.176,-0.137 0.172,-0.231L0.551,-0.231L0.551,-0.26C0.551,-0.44 0.451,-0.546 0.298,-0.546C0.141,-0.546 0.039,-0.435 0.039,-0.267C0.039,-0.098 0.141,0.012 0.301,0.012ZM0.172,-0.317C0.182,-0.4 0.229,-0.445 0.298,-0.445C0.366,-0.445 0.413,-0.404 0.419,-0.317L0.172,-0.317Z" style="fill:white;fill-rule:nonzero;"/>
            </g>
            <g transform="matrix(45.8333,0,0,45.8333,357.646,248.294)">
                <path d="M0.26,0.012C0.334,0.012 0.396,-0.022 0.426,-0.079L0.429,-0L0.551,-0L0.551,-0.71L0.423,-0.71L0.423,-0.458C0.394,-0.513 0.335,-0.546 0.26,-0.546C0.126,-0.546 0.039,-0.438 0.039,-0.267C0.039,-0.096 0.124,0.012 0.26,0.012ZM0.299,-0.092C0.222,-0.092 0.172,-0.16 0.172,-0.267C0.172,-0.376 0.221,-0.442 0.299,-0.442C0.379,-0.442 0.423,-0.381 0.423,-0.267C0.423,-0.154 0.378,-0.092 0.299,-0.092Z" style="fill:white;fill-rule:nonzero;"/>
            </g>
        </g>
        <g transform="matrix(1.31719,0,0,1.31719,54.9108,-33.3229)">
            <g transform="matrix(32.5008,0,0,32.5008,186.505,248.294)">
                <path d="M0.264,0.012C0.338,0.012 0.401,-0.022 0.431,-0.08L0.434,-0L0.533,-0L0.533,-0.71L0.427,-0.71L0.427,-0.457C0.398,-0.512 0.337,-0.544 0.264,-0.544C0.128,-0.544 0.042,-0.436 0.042,-0.266C0.042,-0.095 0.127,0.012 0.264,0.012ZM0.292,-0.08C0.207,-0.08 0.152,-0.152 0.152,-0.266C0.152,-0.382 0.207,-0.452 0.292,-0.452C0.379,-0.452 0.427,-0.384 0.427,-0.266C0.427,-0.149 0.379,-0.08 0.292,-0.08Z" style="fill:white;fill-rule:nonzero;"/>
            </g>
            <g transform="matrix(32.5008,0,0,32.5008,206.005,248.294)">
                <path d="M0.073,-0.609L0.183,-0.609L0.183,-0.715L0.073,-0.715L0.073,-0.609ZM0.075,-0L0.181,-0L0.181,-0.532L0.075,-0.532L0.075,-0Z" style="fill:white;fill-rule:nonzero;"/>
            </g>
            <g transform="matrix(32.5008,0,0,32.5008,214.325,248.294)">
                <path d="M0.289,0.162C0.438,0.162 0.532,0.089 0.532,-0.042L0.532,-0.532L0.43,-0.532L0.43,-0.448C0.404,-0.507 0.343,-0.544 0.267,-0.544C0.135,-0.544 0.042,-0.437 0.042,-0.285C0.042,-0.132 0.137,-0.027 0.271,-0.027C0.34,-0.027 0.4,-0.062 0.426,-0.116L0.426,-0.039C0.426,0.038 0.377,0.074 0.289,0.074C0.214,0.074 0.181,0.047 0.167,0.002L0.057,0.009C0.08,0.101 0.162,0.162 0.289,0.162ZM0.288,-0.117C0.204,-0.117 0.152,-0.182 0.152,-0.286C0.152,-0.389 0.202,-0.454 0.288,-0.454C0.372,-0.454 0.428,-0.39 0.426,-0.286C0.425,-0.181 0.371,-0.117 0.288,-0.117Z" style="fill:white;fill-rule:nonzero;"/>
            </g>
            <g transform="matrix(32.5008,0,0,32.5008,233.956,248.294)">
                <path d="M0.073,-0.609L0.183,-0.609L0.183,-0.715L0.073,-0.715L0.073,-0.609ZM0.075,-0L0.181,-0L0.181,-0.532L0.075,-0.532L0.075,-0Z" style="fill:white;fill-rule:nonzero;"/>
            </g>
            <g transform="matrix(32.5008,0,0,32.5008,241.431,248.294)">
                <path d="M0.279,-0L0.378,-0L0.378,-0.087L0.302,-0.087C0.258,-0.087 0.237,-0.102 0.237,-0.152L0.237,-0.445L0.378,-0.445L0.378,-0.532L0.237,-0.532L0.237,-0.657L0.131,-0.657L0.131,-0.532L0.05,-0.532L0.05,-0.445L0.131,-0.445L0.131,-0.144C0.131,-0.044 0.178,-0 0.279,-0Z" style="fill:white;fill-rule:nonzero;"/>
            </g>
            <g transform="matrix(32.5008,0,0,32.5008,254.789,248.294)">
                <path d="M0.224,0.012C0.307,0.012 0.377,-0.026 0.404,-0.082L0.404,-0.079C0.413,-0.019 0.449,0.003 0.509,0.003C0.525,0.003 0.541,0.002 0.548,-0L0.548,-0.084L0.529,-0.084C0.509,-0.084 0.501,-0.092 0.501,-0.118L0.501,-0.325C0.501,-0.463 0.424,-0.544 0.28,-0.544C0.154,-0.544 0.071,-0.478 0.051,-0.372L0.16,-0.365C0.174,-0.423 0.212,-0.454 0.28,-0.454C0.356,-0.454 0.395,-0.413 0.395,-0.331L0.212,-0.296C0.095,-0.273 0.042,-0.224 0.042,-0.133C0.042,-0.041 0.113,0.012 0.224,0.012ZM0.241,-0.072C0.184,-0.072 0.152,-0.097 0.152,-0.143C0.152,-0.184 0.175,-0.209 0.239,-0.221L0.395,-0.251L0.395,-0.217C0.395,-0.132 0.337,-0.072 0.241,-0.072Z" style="fill:white;fill-rule:nonzero;"/>
            </g>
            <g transform="matrix(32.5008,0,0,32.5008,273.152,248.294)">
                <path d="M0.191,-0L0.26,-0L0.26,-0.087L0.218,-0.087C0.194,-0.087 0.181,-0.098 0.181,-0.123L0.181,-0.71L0.075,-0.71L0.075,-0.113C0.075,-0.034 0.121,-0 0.191,-0Z" style="fill:white;fill-rule:nonzero;"/>
            </g>
        </g>
        <g transform="matrix(0.485814,0,0,0.485814,60.317,120.42)">
            <path d="M86.845,187.278L191.143,187.278C192.132,187.278 192.936,188.082 192.936,189.072L192.936,203.791C192.936,204.781 192.132,205.585 191.143,205.585L56.901,205.585C62.48,194.719 73.801,187.278 86.845,187.278Z" style="fill:white;"/>
        </g>
        <g transform="matrix(0.485814,0,0,0.485814,60.317,157.381)">
            <path d="M191.143,205.585L86.845,205.585C73.801,205.585 62.48,198.144 56.901,187.278L191.143,187.278C192.132,187.278 192.936,188.082 192.936,189.072L192.936,203.791C192.936,204.781 192.132,205.585 191.143,205.585Z" style="fill:white;"/>
        </g>
        <g transform="matrix(0.314347,0,0,0.485814,69.4402,138.901)">
            <path d="M53.207,203.791L53.207,189.072C53.207,188.082 54.449,187.278 55.978,187.278L190.164,187.278C191.694,187.278 192.936,188.082 192.936,189.072L192.936,203.791C192.936,204.781 191.694,205.585 190.164,205.585L55.978,205.585C54.449,205.585 53.207,204.781 53.207,203.791Z" style="fill:rgb(64,124,191);"/>
        </g>
    </g>
</svg>
